<?xml version="1.0" standalone="no"?>
<!DOCTYPE svg PUBLIC "-//W3C//DTD SVG 20010904//EN"
 "http://www.w3.org/TR/2001/REC-SVG-20010904/DTD/svg10.dtd">
<svg version="1.0" xmlns="http://www.w3.org/2000/svg"
 width="1920.000000pt" height="1080.000000pt" viewBox="0 0 1920.000000 1080.000000"
 preserveAspectRatio="xMidYMid meet">
<metadata>
Created by potrace 1.15, written by Peter Selinger 2001-2017
</metadata>
<g transform="translate(0.000000,1080.000000) scale(0.100000,-0.100000)"
fill="#000000" stroke="none">
<path d="M2878 5585 l-3 -1735 1733 0 1732 0 0 1735 0 1735 -1730 0 -1730 0
-2 -1735z m1865 1379 c112 -29 174 -68 282 -178 119 -121 137 -135 236 -173
198 -77 345 -232 415 -438 25 -73 28 -96 32 -267 l4 -187 -68 35 c-77 39 -143
52 -419 81 -214 23 -974 26 -1175 5 -350 -36 -427 -51 -495 -98 -20 -13 -38
-24 -42 -24 -3 0 -3 84 -1 188 4 172 7 194 32 267 71 207 217 361 415 438 99
38 117 52 236 173 106 108 160 143 270 175 76 22 199 24 278 3z m337 -1154
c201 -16 400 -40 465 -56 150 -37 265 -185 265 -340 0 -77 -11 -82 -36 -15
-46 122 -134 226 -213 249 -28 9 -287 12 -951 12 -664 0 -923 -3 -951 -12 -79
-23 -167 -127 -213 -249 -25 -67 -36 -62 -36 15 0 155 115 303 265 340 98 24
442 58 710 70 122 5 554 -4 695 -14z m478 -204 c76 -27 160 -145 192 -270 34
-133 23 -240 -37 -366 -85 -178 -271 -290 -482 -290 -144 0 -340 76 -475 184
-111 89 -181 89 -292 0 -177 -141 -407 -209 -586 -175 -161 31 -303 139 -371
281 -60 126 -71 233 -37 366 32 125 116 243 192 270 48 18 1848 18 1896 0z
m-2184 -210 c3 -36 13 -84 21 -107 8 -23 15 -62 15 -88 1 -124 54 -266 137
-366 55 -66 92 -153 71 -166 -22 -14 -118 -22 -176 -15 -187 22 -328 188 -362
425 -16 116 15 217 89 284 51 46 140 91 192 96 3 1 9 -28 13 -63z m2593 23
c73 -35 135 -100 157 -166 20 -60 20 -178 0 -257 -47 -184 -189 -324 -346
-342 -58 -7 -154 1 -176 15 -22 14 11 94 68 162 86 103 139 244 140 370 0 26
7 66 16 90 8 24 18 72 21 106 6 61 6 63 32 57 14 -3 54 -19 88 -35z m-1472
-716 c39 -60 123 -80 182 -43 41 24 62 57 71 108 l7 40 77 -48 c216 -133 477
-156 669 -59 l62 31 -7 -28 c-15 -59 -60 -98 -143 -127 -444 -151 -1123 -156
-1575 -11 -101 33 -110 38 -143 81 -19 25 -35 54 -35 64 0 16 9 14 73 -16 97
-45 177 -59 291 -52 117 7 252 50 361 116 l80 49 7 -40 c4 -22 15 -51 23 -65z
m895 -205 c-133 -115 -280 -202 -418 -248 -333 -110 -707 -60 -994 134 -96 64
-193 150 -163 143 11 -3 56 -14 100 -26 366 -98 905 -106 1302 -20 50 11 116
28 145 38 29 10 55 16 58 14 3 -3 -11 -19 -30 -35z"/>
<path d="M4422 6588 c-17 -17 -17 -359 0 -376 8 -8 64 -12 188 -12 124 0 180
4 188 12 17 17 17 359 0 376 -8 8 -64 12 -188 12 -124 0 -180 -4 -188 -12z
m107 -245 c9 -17 10 -17 28 0 11 9 34 17 51 17 25 0 32 -4 32 -20 0 -11 5 -20
10 -20 6 0 10 9 10 20 0 11 7 20 15 20 8 0 15 -5 15 -12 0 -9 3 -9 12 0 17 17
58 15 58 -3 0 -8 -7 -15 -17 -15 -15 0 -15 -1 0 -18 10 -10 17 -28 17 -40 0
-22 -17 -30 -67 -30 -26 -1 -33 3 -33 19 0 10 -4 19 -10 19 -5 0 -10 -9 -10
-20 0 -15 -7 -20 -28 -20 -16 0 -37 6 -47 14 -17 12 -21 12 -32 -3 -12 -15
-14 -15 -27 2 -12 15 -14 16 -20 2 -3 -8 -10 -15 -16 -15 -11 0 -14 102 -3
113 13 13 52 7 62 -10z"/>
<path d="M4324 5241 c-93 -57 -49 -201 61 -201 79 0 128 66 106 141 -21 71
-102 100 -167 60z"/>
<path d="M4774 5241 c-93 -57 -49 -201 61 -201 52 0 89 27 105 75 23 71 -30
145 -105 145 -16 0 -44 -9 -61 -19z"/>
<path d="M6960 5604 l0 -1166 33 5 c17 3 150 11 295 18 l262 12 0 464 c0 425
1 464 17 470 9 4 117 0 240 -8 l223 -14 0 246 0 246 -77 7 c-43 3 -130 8 -193
11 -63 3 -134 8 -157 11 l-43 5 0 156 0 156 368 -7 369 -7 6 188 c4 103 7 220
7 259 l0 72 -192 6 c-106 4 -395 13 -643 21 -247 8 -465 15 -482 15 l-33 0 0
-1166z"/>
<path d="M12008 6523 l-3 -243 57 -25 58 -26 -7 -896 c-6 -879 -6 -895 13
-890 10 4 109 14 219 23 110 9 234 19 275 23 l75 6 7 175 c3 96 11 312 17 480
7 168 16 415 21 550 6 135 14 376 20 535 5 160 12 344 16 410 l6 120 -386 0
-385 0 -3 -242z"/>
<path d="M8527 6045 l-88 -94 10 -696 c5 -383 11 -698 13 -699 2 -2 43 -27 92
-55 l89 -53 591 6 c325 4 614 9 642 12 l52 5 72 121 73 121 -13 103 -13 102
-61 6 c-33 3 -146 11 -251 17 -104 5 -195 12 -201 14 -6 2 -23 -21 -37 -51
-15 -30 -30 -54 -35 -54 -31 0 -336 21 -369 26 l-43 5 0 100 0 99 123 0 c67 0
252 -5 411 -10 l288 -9 77 51 c42 28 80 54 84 58 9 8 15 86 42 520 8 135 17
252 19 261 2 12 -30 39 -108 92 l-111 76 -555 10 c-305 6 -589 11 -630 11
l-76 0 -87 -95z m934 -377 c7 -11 23 -287 17 -293 -1 -1 -97 6 -213 16 -115
10 -213 19 -217 19 -5 0 -8 63 -8 141 l0 141 208 -8 c114 -4 210 -11 213 -16z"/>
<path d="M10308 6047 l-85 -93 8 -614 c4 -338 8 -653 9 -700 l0 -85 93 -53 92
-54 530 6 c292 4 581 9 643 12 l112 6 72 121 71 120 -13 101 c-6 56 -13 102
-14 103 -1 1 -74 7 -161 13 -88 6 -206 14 -262 18 l-101 7 -26 -52 c-14 -29
-29 -53 -34 -53 -31 0 -336 21 -369 26 l-43 5 0 95 c0 79 3 96 17 101 9 3 194
1 411 -4 l395 -11 83 55 c97 65 86 25 109 393 9 135 19 294 23 353 l8 109
-111 73 -110 74 -552 11 c-304 5 -587 10 -631 10 l-78 0 -86 -93z m934 -376
c3 -3 10 -73 14 -154 l7 -148 -39 6 c-22 2 -97 9 -169 15 -71 6 -154 13 -182
16 l-53 6 0 140 0 140 208 -7 c114 -4 210 -10 214 -14z"/>
</g>
</svg>
