<?xml version="1.0" standalone="no"?>
<!DOCTYPE svg PUBLIC "-//W3C//DTD SVG 20010904//EN"
 "http://www.w3.org/TR/2001/REC-SVG-20010904/DTD/svg10.dtd">
<svg version="1.0" xmlns="http://www.w3.org/2000/svg"
 width="1920.000000pt" height="1080.000000pt" viewBox="0 0 1920.000000 1080.000000"
 preserveAspectRatio="xMidYMid meet">
<metadata>
Created by potrace 1.15, written by Peter Selinger 2001-2017
</metadata>
<g transform="translate(0.000000,1080.000000) scale(0.100000,-0.100000)"
fill="#000000" stroke="none">
<path d="M1550 5400 l0 -2140 2140 0 2140 0 0 2140 0 2140 -2140 0 -2140 0 0
-2140z m2315 1703 c133 -33 230 -97 357 -234 110 -120 146 -146 263 -193 265
-107 440 -290 523 -546 33 -101 42 -180 42 -377 0 -168 -5 -205 -25 -173 -13
21 -130 72 -194 85 -80 16 -394 51 -586 65 -394 28 -888 22 -1285 -16 -373
-35 -485 -57 -570 -114 l-45 -30 -3 203 c-3 233 12 328 73 456 105 218 243
345 490 449 117 49 157 79 251 186 198 225 442 307 709 239z m425 -1422 c233
-20 495 -52 554 -67 127 -31 231 -119 288 -240 26 -56 32 -82 36 -164 5 -108
-9 -141 -28 -68 -33 121 -144 277 -230 321 l-55 27 -1158 0 -1158 0 -50 -21
c-87 -38 -199 -185 -239 -314 -19 -62 -27 -62 -34 2 -24 210 132 419 344 462
80 16 371 48 550 61 85 6 178 12 205 14 103 7 855 -3 975 -13z m593 -260 c126
-62 237 -287 237 -483 0 -369 -281 -648 -652 -648 -211 0 -411 77 -605 233
l-77 62 -86 3 c-95 3 -90 6 -215 -93 -271 -214 -625 -266 -885 -129 -255 134
-386 432 -318 724 17 74 84 203 134 259 50 56 89 80 144 92 19 4 539 6 1155 5
l1120 -1 48 -24z m-2713 -239 c0 -38 7 -91 16 -118 9 -27 22 -104 29 -171 22
-189 71 -308 178 -428 42 -48 87 -140 87 -180 0 -15 -96 -35 -170 -35 -129 0
-239 50 -335 152 -117 124 -183 305 -173 477 8 132 62 227 169 298 35 23 161
72 187 73 8 0 12 -20 12 -68z m3157 36 c167 -61 257 -193 256 -373 -1 -278
-183 -536 -411 -584 -86 -18 -239 -8 -265 18 -14 14 37 134 76 176 115 123
186 299 187 461 0 35 9 86 20 120 12 32 24 94 27 136 7 88 1 86 110 46z
m-1802 -779 c-16 -25 7 -101 41 -139 106 -118 294 -48 294 109 0 23 2 41 6 41
3 0 32 -19 66 -41 151 -103 314 -158 491 -166 147 -7 251 12 364 67 43 21 79
37 81 35 7 -6 -28 -76 -55 -110 -64 -81 -424 -173 -800 -205 -185 -16 -644 -8
-803 15 -223 31 -497 97 -582 141 -37 19 -97 95 -104 133 l-7 32 72 -36 c249
-125 575 -93 848 84 78 50 100 61 88 40z m1165 -337 c0 -12 -142 -130 -218
-181 -152 -102 -357 -184 -541 -215 -120 -20 -359 -21 -472 -1 -196 34 -391
111 -553 219 -81 55 -211 165 -202 173 2 2 46 -7 97 -21 131 -36 261 -61 419
-83 191 -26 757 -26 940 0 163 23 345 60 445 91 44 14 81 25 83 25 1 1 2 -3 2
-7z"/>
<path d="M3462 6638 c-9 -9 -12 -75 -12 -235 0 -210 1 -223 19 -233 12 -6 104
-10 229 -10 190 0 210 2 225 18 15 16 17 47 17 226 0 124 -4 215 -10 227 -10
18 -23 19 -233 19 -160 0 -226 -3 -235 -12z m130 -297 c11 -19 12 -19 38 1 39
29 102 22 111 -12 7 -24 7 -24 8 -2 1 25 29 42 40 24 4 -7 12 -8 21 -2 39 25
90 -1 54 -27 -18 -13 -18 -15 -1 -27 9 -7 17 -25 17 -40 0 -31 -21 -42 -82
-41 -39 0 -43 3 -48 30 l-6 30 -7 -33 c-6 -32 -8 -32 -52 -28 -26 2 -55 12
-66 22 -17 15 -19 15 -19 1 0 -25 -22 -32 -37 -12 -13 18 -13 18 -26 0 -22
-29 -37 -8 -37 50 0 60 16 85 56 85 13 0 29 -9 36 -19z"/>
<path d="M3382 5000 c-117 -27 -139 -200 -33 -255 64 -32 145 -11 181 48 65
106 -27 235 -148 207z"/>
<path d="M3927 4995 c-48 -16 -62 -28 -81 -69 -22 -46 -20 -81 5 -126 59 -105
212 -88 250 28 35 105 -68 204 -174 167z"/>
<path d="M6490 5341 l0 -1621 43 5 c23 3 206 12 407 21 201 9 367 18 369 20 2
2 6 297 9 654 l5 651 66 -6 c64 -6 549 -35 577 -35 12 0 14 54 14 349 l0 349
-147 6 c-82 4 -170 9 -198 11 -27 2 -107 7 -177 11 l-128 6 0 214 0 213 388
-4 c213 -3 442 -7 509 -10 l121 -5 6 47 c3 27 8 191 12 366 6 306 6 317 -12
317 -22 0 -1400 46 -1676 56 l-188 7 0 -1622z"/>
<path d="M11020 6717 c0 -129 -3 -281 -6 -338 l-7 -104 83 -38 83 -37 -7 -802
c-3 -442 -6 -999 -7 -1238 l0 -435 28 2 c15 2 199 17 408 34 209 17 382 33
384 35 3 3 119 3013 121 3132 l0 22 -540 0 -540 0 0 -233z"/>
<path d="M12275 6788 c-3 -90 -5 -243 -3 -341 l3 -178 70 -31 c39 -17 73 -33
77 -37 3 -3 2 -561 -3 -1240 -6 -678 -8 -1234 -7 -1236 2 -1 68 4 148 11 80 6
264 22 410 34 146 13 266 23 267 24 0 0 26 685 57 1521 31 836 57 1546 59
1578 l3 57 -537 0 -537 0 -7 -162z"/>
<path d="M8666 5958 l-127 -133 5 -205 c3 -113 9 -550 12 -971 l6 -766 132
-77 131 -78 455 6 c250 3 652 9 892 13 l437 6 104 176 103 177 -20 144 -21
145 -260 16 c-143 9 -308 20 -368 23 l-107 7 -33 -70 -32 -70 -45 0 c-25 0
-144 6 -265 14 -121 8 -233 15 -248 15 l-28 0 7 138 c4 75 8 138 9 140 2 2
257 -4 567 -13 l563 -17 115 78 c63 42 116 78 118 80 5 3 72 1008 71 1069 l0
50 -147 100 -147 99 -610 12 c-335 7 -730 15 -876 18 l-267 7 -126 -133z m984
-513 c129 -3 253 -8 276 -11 l40 -6 11 -201 c6 -111 9 -204 7 -206 -4 -4 -594
46 -599 51 -3 3 -8 357 -6 381 1 5 9 6 19 3 9 -2 123 -7 252 -11z"/>
</g>
</svg>
